<svg xmlns="http://www.w3.org/2000/svg" viewBox="0 0 640 512"><defs/><path fill="#fff" d="M592 192H473c13 30 7 65-17 89L320 418v46c0 27 21 48 48 48h224c27 0 48-21 48-48V240c0-27-21-48-48-48zM480 376a24 24 0 110-48 24 24 0 010 48zm-46-187L259 14a49 49 0 00-70 0L14 189a49 49 0 000 70l175 175c19 19 51 19 70 0l175-175c19-19 19-51 0-70zM96 248a24 24 0 110-48 24 24 0 010 48zm128 128a24 24 0 110-48 24 24 0 010 48zm0-128a24 24 0 110-48 24 24 0 010 48zm0-128a24 24 0 110-48 24 24 0 010 48zm128 128a24 24 0 110-48 24 24 0 010 48z"/></svg>
